<svg xmlns="http://www.w3.org/2000/svg" width="40" height="40" viewBox="0 0 40 40">
    <g fill="none" fill-rule="evenodd">
        <g>
            <g>
                <path fill="#F8F8F8" d="M36.921 19.789c-1.085-2.745-1.637-4.467-3.083-6.355-3.225 4.38-12.33 5.78-18.15 6.107-3.422.193-4.002 2.184-5.047 7.34 0 0 .565-2.498-.038.306-.455 2.118-1.562 4.227-4.15 5.359l-1.544.574C8.576 37.334 13.976 40 20 40c7.827 0 14.603-4.497 17.888-11.047.98-1.953 1.649-4.089 1.943-6.342.061-.47.105-.945.133-1.425.023-.392.036-.788.036-1.186l-.003-.211c-1.572-2.992-2.11-1.253-3.076 0z" transform="translate(-50 -550) translate(50 550)"/>
                <path fill="#474747" d="M0 20c0 .869.059 1.723.166 2.562.397 3.101 1.502 5.98 3.15 8.47.486.731 1.019 1.428 1.593 2.088.446.5.822.897 1.13 1.193.306.296.63.592.973.888 1.736-2.597 2.054-3.164 3.62-5.5 1.975-3.305 3.323-5.634 5.579-6.181 5.622-1.362 14.402-5.706 17.627-10.086 1.13 3.13 1.746 4.148 2.832 6.893 0 0 1.755-3.53 3.327-.538C39.884 8.84 30.975 0 20 0 8.954 0 0 8.954 0 20z" transform="translate(-50 -550) translate(50 550)"/>
                <g fill="#474747">
                    <path d="M6.497 9.621c.348-.127.519-.51.381-.858-.137-.346-.53-.525-.879-.398-1.495.545-3.211-.12-3.994-1.546l-.063-.107c-.181-.327-.592-.457-.92-.287-.328.17-.448.573-.268.901l.276.503c.538.72.776.938 1.457 1.357 1.182.729 2.66.928 4.01.435z" transform="translate(-50 -550) translate(50 550) rotate(-15 105.053 -44.932)"/>
                    <path d="M13.732 4.99c.502-.01.886-.301.783-.792l-.345-2.736c-.058-.441-.289-.687-.795-.604-.452.073-.637.513-.537.943l.261 1.86-.597.012c-.451.012-.761.191-.761.635 0 .443.359.684.812.675l1.18.007z" transform="translate(-50 -550) translate(50 550) rotate(-15 105.053 -44.932) rotate(-7 13.136 2.916)"/>
                    <path d="M16.582 2.135c-.584-.108-.97-.67-.862-1.254.108-.585.67-.971 1.254-.863.585.108.97.67.863 1.255-.109.584-.67.97-1.255.862zM5.71 3.139c-.584-.109-.97-.67-.862-1.255.108-.585.67-.97 1.254-.863.585.108.972.67.863 1.255-.108.584-.67.97-1.254.863z" transform="translate(-50 -550) translate(50 550) rotate(-15 105.053 -44.932)"/>
                </g>
                <path fill="#F8F8F8" d="M7.012 35.201c1.087-6.4 4.154-10.294 9.199-11.681 5.045-1.387 4.23 1.067-2.447 7.363L7.012 35.2z" transform="translate(-50 -550) translate(50 550)"/>
            </g>
        </g>
    </g>
</svg>
